<svg width="415" height="146" viewBox="0 0 415 146" fill="none" xmlns="http://www.w3.org/2000/svg">
<path fill-rule="evenodd" clip-rule="evenodd" d="M0 0H257.171C268.101 0 278.555 4.47282 286.103 12.3786L301.413 28.4155C303.533 30.6362 305.883 32.586 308.408 34.2419C312.526 36.6566 320.433 40.3774 326.197 33.5416C331.012 20.9455 343.211 12 357.5 12C372.433 12 385.084 21.7709 389.409 35.2682C391.253 36.0638 393.603 36.0131 396.705 34.2762C406.752 27.6984 413.693 16.704 414.694 3.91473L415 0V101C415 125.853 394.853 146 370 146H0V0Z" fill="white"/>
</svg>
